<svg id="Calque_1" data-name="Calque 1" xmlns="http://www.w3.org/2000/svg" viewBox="0 0 610.18 485.49"><defs><style>.cls-1{fill:#fff;}</style></defs><title>homeicon</title><path class="cls-1" d="M361.1,532.3V387.4h-97V532.3H123c-18.62,0-28.39-9.74-28.39-28.28q0-87.23-.07-174.45a9.79,9.79,0,0,1,4-8.48q93.42-76.81,186.68-153.8c7.71-6.36,15.55-12.57,23.06-19.16,3.24-2.84,5.42-2.77,8.75,0q61.94,51.35,124.09,102.44,43,35.45,86,70.83c2.79,2.29,3.56,4.75,3.56,8.16q-.11,88-.06,176c0,16.51-10.23,26.76-26.85,26.78q-64.48.09-129,0Z" transform="translate(-7.51 -46.83)"/><path class="cls-1" d="M312.47,111.6,238.81,173Q146.1,250.28,53.38,327.56c-8.5,7.08-14.81,6.5-21.85-1.86q-9.65-11.47-19.24-23c-6.85-8.23-6.45-14.5,1.82-21.42q51-42.65,102.11-85.13,80.45-67,160.86-134.07c9.23-7.72,18.72-14.26,31.29-15.11,12.93-.88,24.35,2.4,34.31,10.72Q385.83,93.74,429,129.77c1.22,1,2.52,1.95,4.65,3.58v-6.28q0-31.74,0-63.49c0-11.72,4.22-15.9,16-15.91q32.49,0,65,0c11.74,0,16,4.25,16,15.92q0,72.73-.07,145.47c0,3.63.89,6.09,3.8,8.48,24.57,20.21,49,40.6,73.47,60.94,1.67,1.38,3.36,2.74,4.95,4.21,5.74,5.36,6.67,11.68,1.86,17.77q-11,13.91-22.77,27.21c-5.55,6.26-12.24,6.35-19,.74Q529,292,485.29,255.47L317.94,115.91C316.29,114.53,314.57,113.25,312.47,111.6Z" transform="translate(-7.51 -46.83)"/></svg>