<svg xmlns="http://www.w3.org/2000/svg" viewBox="0 0 250 250"><defs><style>.cls-1,.cls-2{fill:#fff;}.cls-1{opacity:0;}</style></defs><title>Fichier 7</title><g id="Calque_2" data-name="Calque 2"><g id="Calque_1-2" data-name="Calque 1"><rect class="cls-1" width="250" height="250" rx="71.19" ry="71.19"/><path class="cls-2" d="M173.49,49.85q-.21,5.73-.42,11.46c0,.08.07.17.17.36h22.88c0,2.31.12,4.51,0,6.7a90.35,90.35,0,0,1-6.24,28.06c-4.72,11.68-11.5,21.86-21.87,29.32a40.74,40.74,0,0,1-17.72,7.41,2.89,2.89,0,0,0-1.49.67c-1.6,1.53-3.13,3.13-4.32,4.34.28,3.6.07,6.87.15,10.3h-9.52V172.7h9.48v9.67h9.55v19.26H96.61V182.4h9.48v-9.68h9.57V148.49h-9.49c0-3.48-.12-6.75.07-10.28-1.18-1.22-2.65-2.82-4.21-4.32a3.1,3.1,0,0,0-1.63-.69c-9.51-1.39-17.45-5.88-24.25-12.48-10.52-10.23-16.5-22.94-19.86-37-1.65-6.9-2.75-17.11-2.37-21.95H77.66l-.47-11.91ZM92.65,121.1l.32-.37c-8.15-15.43-12.27-32-14.38-49.24H64a78.35,78.35,0,0,0,4.75,20.3c3.55,9.3,8.55,17.67,16.33,24.09C87.42,117.82,90.11,119.37,92.65,121.1Zm65.6-.72c.41-.2.82-.37,1.21-.59a41.71,41.71,0,0,0,10.92-9.11c6.8-7.88,11-17.07,13.56-27.07,1-4,1.62-8,2.44-12.16H172.14C170,88.48,166,104.89,158.25,120.39Z"/></g></g></svg>