<svg xmlns="http://www.w3.org/2000/svg" viewBox="0 0 250 250"><defs><style>.cls-1,.cls-2{fill:#fff;}.cls-1{opacity:0;}</style></defs><title>Fichier 9</title><g id="Calque_2" data-name="Calque 2"><g id="Calque_1-2" data-name="Calque 1"><rect class="cls-1" width="250" height="250" rx="71.19" ry="71.19"/><path class="cls-2" d="M138.06,199.79c-17.85,0-35.69.07-53.54,0-6.86,0-11.48-3.7-12.87-9.63a11.77,11.77,0,0,1,6.06-13.36A17.41,17.41,0,0,1,85,175.1q53.81-.15,107.62,0c8.34,0,13.73,5,13.69,12.32,0,7.46-5.24,12.34-13.65,12.39C174.48,199.86,156.27,199.79,138.06,199.79Z"/><path class="cls-2" d="M139.16,76.42c-18.57,0-37.14.06-55.71,0-6,0-10.16-3.38-11.65-8.84a11.66,11.66,0,0,1,5-13.32,14.86,14.86,0,0,1,7.17-2q54.89-.19,109.79-.06c7.54,0,12.6,5.06,12.59,12.12s-4.94,12.1-12.56,12.14c-18.21.09-36.41,0-54.62,0Z"/><path class="cls-2" d="M138.63,138c-18.21,0-36.41.08-54.62,0-6.71,0-11-3.53-12.36-9.4a11.91,11.91,0,0,1,6-13.4,15.78,15.78,0,0,1,6.79-1.52q54.35-.14,108.69,0c7.9,0,13.17,5,13.18,12.18,0,7.36-4.93,12.14-13.09,12.19C175,138.08,156.84,138,138.63,138Z"/><circle class="cls-2" cx="51.78" cy="64.29" r="9.02"/><circle class="cls-2" cx="51.78" cy="125.8" r="9.02"/><circle class="cls-2" cx="51.78" cy="187.31" r="9.02"/></g></g></svg>