<?xml version="1.0" encoding="utf-8"?>
<!-- Generator: Adobe Illustrator 21.1.0, SVG Export Plug-In . SVG Version: 6.00 Build 0)  -->
<svg version="1.1" id="Calque_1" xmlns="http://www.w3.org/2000/svg" xmlns:xlink="http://www.w3.org/1999/xlink" x="0px" y="0px"
	 viewBox="0 0 250 250" style="enable-background:new 0 0 250 250;" xml:space="preserve">
<style type="text/css">
	.st0{fill:#FFFFFF;fill-opacity:0;}
	.st1{fill:#FFFFFF;}
</style>
<title>Fichier 9</title>
<g id="Calque_2">
	<g id="Calque_1-2">
		<path class="st0" d="M71.2,0h107.6C218.1,0,250,31.9,250,71.2v107.6c0,39.3-31.9,71.2-71.2,71.2H71.2C31.9,250,0,218.1,0,178.8
			V71.2C0,31.9,31.9,0,71.2,0z"/>
		<path class="st1" d="M143.4,193c-14.7,0-29.4,0.1-44.1,0c-5.7,0-9.5-3-10.6-7.7c-1.1-4.3,1-8.7,5-10.7c1.9-0.9,3.9-1.3,6-1.4
			c29.6-0.1,59.1-0.1,88.7,0c6.9,0,11.3,4,11.3,9.9c0,6-4.3,9.9-11.3,9.9C173.4,193,158.4,193,143.4,193z"/>
		<path class="st1" d="M144.3,78.5c-15.3,0-30.6,0-45.9,0c-4.9,0-8.4-2.8-9.6-7.2c-1.3-4.1,0.4-8.6,4.1-10.9c1.8-1,3.8-1.6,5.9-1.6
			c30.2-0.1,60.3-0.1,90.5,0c6.2,0,10.4,4.1,10.4,9.9c0,5.8-4.1,9.9-10.4,9.9C174.3,78.6,159.3,78.6,144.3,78.5L144.3,78.5z"/>
		<path class="st1" d="M143.9,135.7c-15,0-30,0.1-45,0c-5.5,0-9.1-2.9-10.2-7.6c-1.1-4.3,1-8.8,4.9-10.9c1.7-0.8,3.7-1.2,5.6-1.2
			c29.9-0.1,59.7-0.1,89.6,0c6.5,0,10.9,4.1,10.9,9.9c0,6-4.1,9.9-10.8,9.9C173.9,135.8,158.9,135.7,143.9,135.7z"/>
		<ellipse class="st1" cx="57.7" cy="68.6" rx="8.3" ry="8.4"/>
		<ellipse class="st1" cx="57.7" cy="125.8" rx="8.3" ry="8.4"/>
		<ellipse class="st1" cx="57.7" cy="183" rx="8.3" ry="8.4"/>
	</g>
</g>
</svg>
