<svg xmlns="http://www.w3.org/2000/svg" viewBox="0 0 250 250"><defs><style>.cls-1,.cls-2{fill:#fff;}.cls-1{opacity:0;}</style></defs><title>Fichier 2</title><g id="Calque_2" data-name="Calque 2"><g id="Calque_1-2" data-name="Calque 1"><rect class="cls-1" width="250" height="250" rx="71.19" ry="71.19"/><path class="cls-2" d="M74,80.82c0,8.18-3.56,18.3-10.61,30.37H50.87c3,3.48,7.86,6.88,14.42,10.53H44.47c-9-6.64-13.53-15.23-13.53-25.59,0-7.94,3-16.6,8.67-26.32H53a95.71,95.71,0,0,0-9.07-8L63.34,59C70.47,65.67,74,72.64,74,80.82ZM57.43,83.73a23,23,0,0,0-3.81-13.44C49.25,81,47,89.57,47,96.13a28.4,28.4,0,0,0,3.89,14.66C55.25,101.55,57.43,92.72,57.43,83.73Z"/><path class="cls-2" d="M113,115.65H86.35c-5.43-4-7.78-8.42-7.78-14.74a78.9,78.9,0,0,1,1.05-10.45l3.89-25.51H98.66L93.15,97.5a24.2,24.2,0,0,0-.32,3.32c0,4.45,2.27,8.75,6.88,13l6.4-52.65h16.12Z"/><path class="cls-2" d="M136,115.65H122.48l6.16-52.89h16.44Z"/><path class="cls-2" d="M159.65,105.93l13.61,1-1.78,8.75H140.86l20.57-42.52H145.88l2.59-11.34h36.2Z"/><path class="cls-2" d="M197.64,105.93l13.61,1-1.78,8.75H178.85l20.57-42.52H183.87l2.59-11.34h36.2Z"/><path class="cls-2" d="M42.44,176.65H31.09l5-41.51H49.65Zm25.48-37.1c0,5.46-3.43,13.3-9.8,24.08H45.24c5.67-9.17,8.82-16,8.82-21.28,0-5.6-3.85-8.19-12.25-12.25L58,126.87C64.77,130.93,67.92,134.22,67.92,139.54Z"/><path class="cls-2" d="M104.88,146.33c0,8.26-4.2,18.41-12.74,30.31H73.59c-3.85-6.51-5.88-12-5.88-16.87,0-6.86,2.52-14.35,7.49-22.75H86.75a82.7,82.7,0,0,0-7.84-6.93l16.8-2.38C101.87,133.45,104.88,139.47,104.88,146.33Zm-14.28,2c0-4.34-.91-7.84-3.36-10.92-3.78,8.89-5.67,16.73-5.67,23.59a48.81,48.81,0,0,0,1.82,12.53C88.15,163.83,90.6,155.5,90.6,148.29Z"/><path class="cls-2" d="M130.15,176.65h-23l5.6-46.55h13.86l-6.58,38.5,11.48.21Z"/><path class="cls-2" d="M145.48,176.65H133.78l5.32-45.71h14.21Z"/><path class="cls-2" d="M185.8,152.56H173.48L176.84,134c-5.53,10.5-8.26,18.27-8.26,23.38,0,6.37,4.69,12.81,14,19.25H165.49c-7.42-6.51-11.27-11.83-11.27-18.62s3.36-15,9.45-25.2h13.44l.84-4.34h12Z"/><path class="cls-2" d="M217.3,139.68l-10.78.42-2,10.29h11L214.22,158l-11.2.56-1.75,9.87,11.13.56-1.33,7.7H188l4.62-33.74,10.5-2.52v-.14l-12.18.35,2.66-10.5h25.34Z"/></g></g></svg>