<?xml version="1.0" encoding="utf-8"?>
<!-- Generator: Adobe Illustrator 21.1.0, SVG Export Plug-In . SVG Version: 6.00 Build 0)  -->
<svg version="1.1" id="Calque_1" xmlns="http://www.w3.org/2000/svg" xmlns:xlink="http://www.w3.org/1999/xlink" x="0px" y="0px"
	 viewBox="0 0 250 250" style="enable-background:new 0 0 250 250;" xml:space="preserve">
<style type="text/css">
	.st0{fill:#FFFFFF;fill-opacity:0;}
	.st1{fill:#FFFFFF;}
</style>
<title>Fichier 3</title>
<g id="Calque_2">
	<g id="Calque_1-2">
		<path class="st0" d="M71.2,0h107.6C218.1,0,250,31.9,250,71.2v107.6c0,39.3-31.9,71.2-71.2,71.2H71.2C31.9,250,0,218.1,0,178.8
			V71.2C0,31.9,31.9,0,71.2,0z"/>
	</g>
</g>
<g>
	<path class="st1" d="M78.3,89.7l-7.2,0.2l-6.9,39.7H51.4l4.5-37L67.3,90v-0.2l-19.9,0.8l1.5-12.2h31.5L78.3,89.7z"/>
	<path class="st1" d="M103.4,129.6H90.7l2.8-12.7H82c-2-4.6-2.3-10.4-2.3-17.6c0-6,0.3-11.9,1-17.9h14.7C93.9,92,93,101,93,108.4
		c0,2.8,0.2,5.3,0.8,7.7H94l8.2-39.4h15.6L103.4,129.6z"/>
	<path class="st1" d="M128.5,129.6H116l5.5-45.7h14.9L128.5,129.6z M156.5,88.8c0,6-3.8,14.6-10.8,26.5h-14.2
		c6.2-10.1,9.7-17.6,9.7-23.4c0-6.2-4.2-9-13.5-13.5l17.8-3.5C153,79.4,156.5,83,156.5,88.8z"/>
	<path class="st1" d="M197.1,96.3c0,9.1-4.6,20.3-14,33.3h-20.4c-4.2-7.2-6.5-13.2-6.5-18.6c0-7.5,2.8-15.8,8.2-25h12.7
		c-2.7-2.7-5.5-5.2-8.6-7.6l18.5-2.6C193.8,82.1,197.1,88.8,197.1,96.3z M181.4,98.5c0-4.8-1-8.6-3.7-12c-4.2,9.8-6.2,18.4-6.2,25.9
		c0,4.3,0.7,8.9,2,13.8C178.7,115.6,181.4,106.4,181.4,98.5z"/>
	<path class="st1" d="M57.1,153.1c0,3.1,1,6.2,3,9.8h0.1l1.8-16.3h8.6l-3,17H51.2c-2.4-3.7-3.5-7-3.5-11c0-7.4,3.9-14.9,11.1-20.5
		h13.4C62.2,138.6,57.1,146,57.1,153.1z"/>
	<path class="st1" d="M79.4,163.6h-7.6l3.4-27.9h9.1L79.4,163.6z M97.7,139.7c0,3-1.7,6.3-5.1,10l-3.3,3.5l5.7,10.5h-9.6l-3.9-9.6
		l4.5-7.8c1.6-2.7,2.1-5.1,2.1-5.8c0-2-1.5-4.1-4.2-5.5l-4.9-2.5l10.9-2.2C95.1,133,97.7,136.1,97.7,139.7z"/>
	<path class="st1" d="M118,163.6h-8.1l0.4-7l-4.9,0.7l-1.6,6.3h-7.1l5.7-29.4h9.1l-4.9,18.6h4l1-21.5h9.5L118,163.6z"/>
	<path class="st1" d="M130,163.6h-7.6l3.4-27.9h9.1L130,163.6z M147.1,138.7c0,3.7-2.3,8.9-6.6,16.2h-8.6c3.8-6.2,5.9-10.8,5.9-14.3
		c0-3.8-2.6-5.5-8.2-8.2l10.9-2.2C144.9,133,147.1,135.2,147.1,138.7z"/>
	<path class="st1" d="M168,163.6h-7.8l1.4-11.3l-5.4,0.7l-1.6,10.6H147l2.7-29.4h9.4l-2.2,14.2h5.2l2.1-17.2h9.4L168,163.6z"/>
	<path class="st1" d="M193.4,138.8l-7.2,0.3l-1.3,6.9h7.4l-0.9,5.1l-7.5,0.4l-1.2,6.6l7.5,0.4l-0.9,5.2h-15.5l3.1-22.7l7-1.7v-0.1
		l-8.2,0.2l1.8-7h17L193.4,138.8z"/>
</g>
</svg>
