<svg xmlns="http://www.w3.org/2000/svg" viewBox="0 0 250 250"><defs><style>.cls-1,.cls-2{fill:#fff;}.cls-1{opacity:0;}</style></defs><title>Fichier 3</title><g id="Calque_2" data-name="Calque 2"><g id="Calque_1-2" data-name="Calque 1"><rect class="cls-1" width="250" height="250" rx="71.19" ry="71.19"/><path class="cls-2" d="M74,87.82c0,8.18-3.56,18.3-10.61,30.37H50.87c3,3.48,7.86,6.88,14.42,10.53H44.47c-9-6.64-13.53-15.23-13.53-25.59,0-7.94,3-16.6,8.67-26.32H53a95.71,95.71,0,0,0-9.07-8L63.34,66C70.47,72.67,74,79.64,74,87.82ZM57.43,90.73a23,23,0,0,0-3.81-13.44C49.25,88,47,96.57,47,103.13a28.4,28.4,0,0,0,3.89,14.66C55.25,108.55,57.43,99.72,57.43,90.73Z"/><path class="cls-2" d="M113,122.65H86.35c-5.43-4-7.78-8.42-7.78-14.74a78.9,78.9,0,0,1,1.05-10.45l3.89-25.51H98.66L93.15,104.5a24.2,24.2,0,0,0-.32,3.32c0,4.45,2.27,8.75,6.88,13l6.4-52.65h16.12Z"/><path class="cls-2" d="M136,122.65H122.48l6.16-52.89h16.44Z"/><path class="cls-2" d="M159.65,112.93l13.61,1-1.78,8.75H140.86l20.57-42.52H145.88l2.59-11.34h36.2Z"/><path class="cls-2" d="M197.64,112.93l13.61,1-1.78,8.75H178.85l20.57-42.52H183.87l2.59-11.34h36.2Z"/><path class="cls-2" d="M57.6,140.49l-9.09.35-2.12,10.38h9.32l-1.24,6.37-9.32.65-2.42,13.39h-10l3.89-28.44,8.79-2.12V141l-10.09.29,2.24-8.85H59Z"/><path class="cls-2" d="M81.43,171.65H71.22l.53-8.73-6.2.89-2.06,7.85h-9l7.2-36.94H73.11L67,158.07h5l1.3-27H85.21Z"/><path class="cls-2" d="M122.26,171.65h-9.09l3.72-29.44h-.12l-7.91,29.44-8.67.94L100,143.74l-4.31,27.91H87.33l3.3-36.94H106l-.12,28.09L113.94,131l15,1.36Z"/><path class="cls-2" d="M139.37,171.65h-9.85L134,133.11h12Z"/><path class="cls-2" d="M165.21,171.65H145.86l4.72-39.24h11.68l-5.55,32.45,9.68.18Z"/><path class="cls-2" d="M187.51,171.65H168.16l4.72-39.24h11.68L179,164.86l9.68.18Z"/><path class="cls-2" d="M215.18,140.49l-9.09.35-1.65,8.67h9.26l-1.12,6.37-9.44.47-1.48,8.32,9.38.47-1.12,6.49H190.46l3.89-28.44,8.85-2.12V141l-10.27.29,2.24-8.85h21.36Z"/></g></g></svg>