<?xml version="1.0" encoding="utf-8"?>
<!-- Generator: Adobe Illustrator 21.1.0, SVG Export Plug-In . SVG Version: 6.00 Build 0)  -->
<svg version="1.1" id="Calque_1" xmlns="http://www.w3.org/2000/svg" xmlns:xlink="http://www.w3.org/1999/xlink" x="0px" y="0px"
	 viewBox="0 0 250 250" style="enable-background:new 0 0 250 250;" xml:space="preserve">
<style type="text/css">
	.st0{fill:#FFFFFF;fill-opacity:0;}
	.st1{fill:#FFFFFF;}
</style>
<title>Fichier 3</title>
<g id="Calque_2">
	<g id="Calque_1-2">
		<path class="st0" d="M71.2,0h107.6C218.1,0,250,31.9,250,71.2v107.6c0,39.3-31.9,71.2-71.2,71.2H71.2C31.9,250,0,218.1,0,178.8
			V71.2C0,31.9,31.9,0,71.2,0z"/>
	</g>
</g>
<g>
	<path class="st1" d="M51.6,97.8c0,5.1,1.7,10.4,5.1,16.4h0.2l3.1-27.3h14.5l-5,28.6H41.8c-4.1-6.2-5.8-11.7-5.8-18.6
		c0-12.5,6.5-25.1,18.6-34.5h22.6C60.2,73.5,51.6,85.9,51.6,97.8z"/>
	<path class="st1" d="M110.6,115.5H96.9l0.7-11.7l-8.3,1.2l-2.8,10.5h-12l9.6-49.5h15.3l-8.2,31.3h6.7l1.7-36.2h16L110.6,115.5z"/>
	<path class="st1" d="M165.3,115.5h-12.2l5-39.4h-0.2l-10.6,39.4l-11.6,1.3l-0.2-38.6l-5.8,37.4h-11.2l4.4-49.5h20.5l-0.2,37.6
		l10.8-42.5l20.1,1.8L165.3,115.5z"/>
	<path class="st1" d="M207.3,73.8l-12.2,0.5l-2.2,11.6h12.4l-1.5,8.5l-12.6,0.6l-2,11.1l12.6,0.6l-1.5,8.7h-26.1l5.2-38.1l11.9-2.8
		v-0.2l-13.7,0.4l3-11.9h28.6L207.3,73.8z"/>
	<path class="st1" d="M82.8,178.1H70.6l5-39.4h-0.2l-10.6,39.4l-11.6,1.3L53,140.8l-5.8,37.4H36l4.4-49.5H61l-0.2,37.6l10.8-42.5
		l20.1,1.8L82.8,178.1z"/>
	<path class="st1" d="M134.4,143.9c0,9.3-4.7,20.8-14.4,34.2H99c-4.3-7.3-6.6-13.5-6.6-19c0-7.7,2.8-16.2,8.5-25.7h13
		c-2.8-2.8-5.7-5.4-8.9-7.8l19-2.7C131,129.4,134.4,136.2,134.4,143.9z M118.2,146.1c0-4.9-1-8.8-3.8-12.3
		c-4.3,10-6.4,18.9-6.4,26.6c0,4.4,0.7,9.1,2.1,14.1C115.5,163.7,118.2,154.3,118.2,146.1z"/>
	<path class="st1" d="M150.1,178.1H137l5.5-44.7h15.3L150.1,178.1z M180.7,143.8c0,8.5-5.1,19.9-15.5,34.4h-14.5
		c9.5-13.7,14-24.7,14-32.8c0-8.4-5.1-13.4-16.4-18.8l16-3.6C175.4,128.7,180.7,135.1,180.7,143.8z"/>
	<path class="st1" d="M214.6,136.4l-12.2,0.5l-2.2,11.6h12.4l-1.5,8.5l-12.6,0.6l-2,11.1l12.6,0.6l-1.5,8.7h-26.1l5.2-38.1l11.9-2.8
		V137l-13.7,0.4l3-11.9h28.6L214.6,136.4z"/>
</g>
</svg>
