<?xml version="1.0" encoding="utf-8"?>
<!-- Generator: Adobe Illustrator 21.0.0, SVG Export Plug-In . SVG Version: 6.00 Build 0)  -->
<svg version="1.1" id="Calque_1" xmlns="http://www.w3.org/2000/svg" xmlns:xlink="http://www.w3.org/1999/xlink" x="0px" y="0px"
	 viewBox="0 0 250 250" style="enable-background:new 0 0 250 250;" xml:space="preserve">
<style type="text/css">
	.st0{fill:#FFFFFF;fill-opacity:0;}
	.st1{fill:#FFFFFF;}
</style>
<title>Fichier 3</title>
<g id="Calque_2">
	<g id="Calque_1-2">
		<path class="st0" d="M71.2,0h107.6C218.1,0,250,31.9,250,71.2v107.6c0,39.3-31.9,71.2-71.2,71.2H71.2C31.9,250,0,218.1,0,178.8
			V71.2C0,31.9,31.9,0,71.2,0z"/>
	</g>
</g>
<g>
	<path class="st1" d="M71.9,87.8c0,8.2-3.6,18.4-10.7,30.6H48.6c3,3.5,7.9,6.9,14.5,10.6h-21c-9.1-6.7-13.6-15.3-13.6-25.8
		c0-8,3-16.7,8.7-26.5h13.5c-2.9-2.9-5.9-5.5-9.1-8.1l19.6-2.8C68.4,72.6,71.9,79.6,71.9,87.8z M55.2,90.7c0-5.2-1.1-9.5-3.8-13.5
		c-4.4,10.8-6.7,19.4-6.7,26c0,5.4,1.2,10,3.9,14.8C53,108.7,55.2,99.8,55.2,90.7z"/>
	<path class="st1" d="M111.2,122.9H84.4c-5.5-4.1-7.8-8.5-7.8-14.8c0-1.6,0.2-5.1,1.1-10.5l3.9-25.7h15.2l-5.5,32.8
		c-0.2,1.1-0.3,2.3-0.3,3.3c0,4.5,2.3,8.8,6.9,13.1l6.4-53h16.2L111.2,122.9z"/>
	<path class="st1" d="M134.3,122.9h-13.6l6.2-53.2h16.6L134.3,122.9z"/>
	<path class="st1" d="M158.1,113.1l13.7,1l-1.8,8.8h-30.8l20.7-42.8h-15.7l2.6-11.4h36.4L158.1,113.1z"/>
	<path class="st1" d="M196.4,113.1l13.7,1l-1.8,8.8h-30.8l20.7-42.8h-15.7l2.6-11.4h36.4L196.4,113.1z"/>
	<path class="st1" d="M76.7,183.7H64.1l5.1-40.7h-0.2l-10.9,40.7l-12,1.3l-0.2-39.9l-6,38.6H28.4l4.6-51h21.2L54,171.5l11.2-43.9
		l20.7,1.9L76.7,183.7z"/>
	<path class="st1" d="M100.3,183.7H86.7l6.2-53.2h16.6L100.3,183.7z"/>
	<path class="st1" d="M134.6,156.5l9.4,27.2h-14.7l-4.8-12.9l-7.8,12.9h-11.2l14.5-25.4l-9.5-25.6h15.7l3.8,10.6l8.3-15.7h13.5
		L134.6,156.5z"/>
	<path class="st1" d="M182.9,141.4l-7.7,0.2l-7.3,42.1h-13.6l4.7-39.1l12.1-2.9v-0.2l-21.1,0.8l1.6-12.9H185L182.9,141.4z"/>
	<path class="st1" d="M216.3,140.7l-12.6,0.5l-2.3,12h12.8l-1.5,8.8l-13,0.7l-2,11.5l13,0.7l-1.5,9h-26.9l5.4-39.3l12.2-2.9v-0.2
		l-14.2,0.4l3.1-12.2h29.5L216.3,140.7z"/>
</g>
</svg>
