<svg xmlns="http://www.w3.org/2000/svg" viewBox="0 0 250 250"><defs><style>.cls-1,.cls-2{fill:#fff;}.cls-1{opacity:0;}</style></defs><title>Fichier 6</title><g id="Calque_2" data-name="Calque 2"><g id="Calque_1-2" data-name="Calque 1"><rect class="cls-1" width="250" height="250" rx="71.19" ry="71.19"/><path class="cls-2" d="M106.27,49.85h37.46c0,7.33,0,14.66,0,22,3.79,1.8,7.61,3.57,11.27,5.61a54.32,54.32,0,0,1,5.65,4c.63.46,1.12.72,1.89.19,1.12-.77,2.35-1.36,3.52-2l14.64-8.45,18.77,32.52-.86.52c-5.77,3.34-11.53,6.7-17.33,10a1.37,1.37,0,0,0-.77,1.63c.24,1.66.51,3.32.64,5a50.79,50.79,0,0,1-.63,13.26,1.44,1.44,0,0,0,.87,1.81c1.36.67,2.64,1.5,4,2.26l14.13,8.16L180.7,178.82l-.75-.41c-5.54-3.19-11.08-6.36-16.6-9.59-1.39-.81-2.31-1.11-4.07.94a22.85,22.85,0,0,1-11.58,7.15c-3.23.83-4,.79-4,2.25,0,7,0,14,0,21H106.27c0-7.33,0-14.66,0-22-3.69-1.73-7.41-3.44-11-5.43a60.93,60.93,0,0,1-6-4.19c-.63-.46-1.12-.71-1.9-.18-1.12.76-2.35,1.36-3.52,2l-14.64,8.45L50.54,146.34c.51-.31.88-.55,1.26-.77C57.43,142.3,63,139,68.71,135.81c.9-.51.88-1.09.74-1.85a49.69,49.69,0,0,1-.63-12.54c.15-1.87.48-3.72.63-5.59a1.72,1.72,0,0,0-.47-1.38c-3-1.84-6.14-3.59-9.21-5.37l-9.25-5.39,18.75-32.5.75.41,16.6,9.58c1.72,1,1.75,1,3.27-.18a55.33,55.33,0,0,1,16.38-9C106.24,64.58,106.26,57.21,106.27,49.85Zm44.86,86C160,112.1,138.22,90.2,114.4,98.75A26.07,26.07,0,0,0,99,113.91c-9.13,23.94,13,46.14,36.9,37.21A26.16,26.16,0,0,0,151.13,135.84Z"/></g></g></svg>